<?xml version="1.0" standalone="no"?><!DOCTYPE svg PUBLIC "-//W3C//DTD SVG 1.1//EN" "http://www.w3.org/Graphics/SVG/1.1/DTD/svg11.dtd"><svg t="1781013150150" class="icon" viewBox="0 0 1464 1024" version="1.1" xmlns="http://www.w3.org/2000/svg" p-id="5021" xmlns:xlink="http://www.w3.org/1999/xlink" width="285.9375" height="200"><path d="M466.763052 1010.428916c-30.020884-3.701205-55.518072-8.019277-72.995984-12.33735-24.674699-5.963052-70.939759-21.795984-70.939759-24.057831 0-0.82249 85.333333-1.439357 189.583936-1.439357 104.04498 0.205622 188.555823 1.028112 187.527711 1.850602-3.084337 2.878715-42.769478 16.244177-65.182329 22.001606-41.124498 10.486747-63.126104 13.159839-113.503615 13.98233-25.908434 0.411245-50.583133 0.411245-54.48996 0zM906.795181 1010.428916c-30.637751-3.495582-57.77992-8.2249-77.930924-13.571085-29.609639-7.608032-66.004819-19.945382-66.004819-22.412851 0-2.056225 359.428112-2.056225 369.092369 0 5.551807 1.233735 3.906827 2.261847-15.421687 9.047389-27.553414 9.664257-62.920482 18.917269-90.473895 23.029719-20.562249 3.28996-101.988755 5.963052-119.261044 3.906828zM243.457028 934.348594c-13.571084-8.430522-26.319679-17.272289-28.581526-19.534136-3.906827-3.906827 2.056225-3.906827 517.140562-3.906827h521.253012l-10.897992 7.813654c-5.963052 4.11245-19.328514 12.954217-29.609638 19.328514l-18.711647 11.926105H267.720482l-24.263454-15.62731zM159.768675 868.138153c-9.86988-9.86988-17.889157-18.711647-17.889157-19.534137s77.725301-1.439357 172.722892-1.439357h172.722891l17.477912 5.140562c23.029719 6.57992 46.881928 10.897992 71.351004 12.954217 21.795984 1.64498 22.618474 1.028112 11.103614-9.664257-2.878715-2.878715-5.346185-5.75743-5.346184-6.785542 0-0.82249 77.930924-1.64498 173.339759-1.64498 167.582329 0 173.545382 0.205622 186.499598 4.112449 17.683534 5.551807 45.853815 11.514859 68.883534 14.599197 33.516466 4.523695 89.240161-0.616867 130.159036-11.720482l25.497189-6.991164h76.902811c42.358233 0 76.902811 0.82249 76.902812 1.64498 0 1.028112-8.019277 9.86988-17.889157 19.534136l-17.889157 17.889157H177.863454l-18.094779-18.094779zM105.484337 806.040161c-6.991165-9.664257-12.954217-18.094779-12.954217-18.917269 0-1.028112 64.565462-1.64498 143.524498-1.64498h143.730121l14.187952 10.897992c7.813655 6.168675 19.945382 14.599197 27.142168 18.917269 6.991165 4.318072 12.748594 7.813655 12.748595 8.019277s-70.939759 0.205622-157.71245 0.205622H118.438554l-12.954217-17.477911zM557.648193 822.48996c-2.056225-1.439357-12.954217-16.038554-20.767872-27.142169l-6.579919-9.869879h144.346988c131.598394 0 144.758233 0.205622 148.253815 3.495582 3.495582 3.084337 3.906827 3.084337 7.402409 0 3.28996-3.084337 10.075502-3.495582 52.639358-3.495582h48.73253l-10.486747 15.010441c-5.551807 8.019277-11.720482 16.655422-13.365462 18.711647-2.878715 3.906827-7.813655 4.11245-176.012851 4.11245-94.99759 0.205622-173.545382-0.205622-174.162249-0.82249zM1221.39759 822.695582c0-0.616867 4.93494-3.906827 10.69237-7.402409 5.75743-3.28996 17.889157-11.514859 26.730924-17.889157l16.038554-11.926104h47.293172c26.114056 0 47.293173 0.616867 47.293173 1.233735 0 1.850602-20.562249 31.254618-23.852209 33.92771-2.261847 1.850602-19.739759 2.673092-63.742972 2.878715-33.105221 0.205622-60.453012 0-60.453012-0.82249zM62.097992 735.100402c-6.991165-14.187952-12.748594-27.142169-12.748594-28.787149 0-2.673092 16.038554-3.084337 128.514056-3.084337h128.308434l8.636144 12.748594c4.729317 6.785542 15.010442 19.739759 22.824097 28.787149l14.187951 16.038554H75.052209l-12.954217-25.702811zM501.102008 733.661044c-7.40241-14.804819-13.159839-27.759036-12.542972-28.787148 1.233735-2.056225 253.943775-2.056225 256.82249 0 1.233735 0.82249 6.57992 7.813655 12.131727 15.421686 5.346185 7.813655 15.421687 19.945382 22.207229 27.347791l12.337349 13.15984H514.673092l-13.571084-27.142169zM863.614458 759.7751c0-0.411245 3.701205-4.729317 8.430522-9.664257 4.523695-4.93494 14.804819-17.477912 22.618474-27.759036l14.393574-19.122891 31.665864 0.205622c17.477912 0 32.282731 0.82249 32.693975 1.64498 0.616867 0.82249-4.93494 13.776707-12.131726 28.787149l-13.365462 26.936546h-42.152611c-23.235341 0-42.15261-0.411245-42.15261-1.028113zM1303.646586 759.569478c0-0.616867 5.75743-7.40241 12.542972-14.804819 6.991165-7.608032 16.449799-19.328514 20.973494-26.114057s9.253012-12.954217 10.486747-13.776706 16.449799-1.439357 33.722089-1.439358c27.347791 0.205622 31.254618 0.616867 31.254618 3.495582 0 1.850602-5.75743 14.804819-12.748594 28.581527l-12.542972 25.291566h-41.946988c-22.824096 0-41.741365-0.616867-41.741366-1.233735zM35.778313 673.413655c-3.28996-8.019277-13.159839-43.591968-13.159839-47.910041 0-2.056225 25.085944-2.46747 122.551004-2.056224l122.551004 0.616867 6.57992 16.449799c3.701205 9.04739 9.04739 21.179116 11.926104 27.142169s4.729317 11.103614 4.11245 11.720482c-0.411245 0.616867-57.368675 1.233735-126.252209 1.233735H38.862651l-3.084338-7.196787zM477.249799 677.937349c-1.64498-2.261847-16.655422-50.583133-16.655421-54.078714 0-0.411245 55.518072-0.82249 123.167871-0.82249h123.167871l5.75743 15.010441c3.084337 8.019277 8.2249 20.151004 11.309237 26.525302 3.28996 6.57992 5.963052 12.748594 5.963052 13.982329 0 3.495582-249.831325 2.673092-252.71004-0.616868zM923.24498 679.376707c0-0.616867 3.084337-7.813655 6.991165-15.832932 3.701205-8.2249 9.04739-20.562249 11.720482-27.553414l4.934939-12.954216h27.347791c25.085944 0 27.347791 0.205622 26.319679 3.701204-0.616867 1.850602-2.056225 7.608032-3.28996 12.748595s-4.523695 16.449799-7.402409 25.291566l-5.346185 15.832932h-30.637751c-16.861044 0-30.637751-0.616867-30.637751-1.233735zM1363.277108 678.554217c0-1.233735 3.084337-8.430522 6.785543-16.038554 3.906827-7.608032 9.04739-19.534137 11.720482-26.525302l4.523694-12.954216h27.759036c25.291566 0 27.553414 0.205622 26.525302 3.701204-0.616867 1.850602-3.495582 11.720482-6.374298 21.590362-2.878715 10.075502-6.57992 21.384739-8.224899 25.291566l-2.878715 6.991165h-29.815261c-19.122892 0-30.020884-0.82249-30.020884-2.056225zM11.103614 478.689157c1.64498-37.012048 4.93494-60.041767 13.365462-92.530121 22.001606-85.127711 63.742972-158.946185 125.635342-222.483534 30.432129-31.254618 50.583133-48.321285 80.192771-68.061044 92.941365-61.892369 188.144578-88.417671 304.321285-84.716466 40.713253 1.439357 65.593574 4.729317 100.75502 13.776707 24.674699 6.168675 61.686747 18.711647 61.686747 20.767871 0 0.82249-6.785542 5.551807-14.804819 10.281125-34.955823 20.151004-65.593574 43.79759-102.194378 78.959036-23.440964 22.618474-24.057831 23.029719-37.012048 25.497189-31.460241 6.168675-76.491566 21.590361-100.138153 34.338956-42.9751 23.235341-85.127711 57.368675-112.064257 90.88514-47.293173 58.60241-75.669076 129.953414-79.370281 199.453815l-1.233735 25.085944H9.664257l1.439357-31.254618zM450.107631 509.121285c-1.64498-1.850602 2.261847-57.985542 5.346184-77.314056 14.599197-87.800803 52.228112-170.872289 108.568675-239.138956 20.767871-25.291566 63.537349-66.827309 86.567068-83.893976 62.097992-46.676305 145.991968-81.220884 228.446587-94.586345 26.114056-4.318072 117.616064-3.701205 147.02008 0.82249 85.538956 13.365462 164.086747 47.08755 232.559036 99.315662 27.142169 20.767871 70.528514 64.154217 90.062651 90.062651 62.714859 83.277108 97.053815 174.779116 102.811245 274.300402 0.82249 15.627309 1.233735 28.787149 0.82249 29.815261-0.411245 0.82249-11.309237 1.439357-24.057832 1.439357h-23.235341l-2.261847-26.114056c-8.019277-89.857028-41.741365-163.675502-103.016868-224.745382-14.187952-14.187952-34.750201-31.871486-45.44257-39.479518-38.657028-27.553414-87.800803-48.526908-138.795181-59.630522-13.159839-2.878715-29.815261-4.318072-58.60241-5.140562-34.338956-1.028112-44.003213-0.411245-67.238554 3.28996-25.702811 4.11245-64.154217 15.216064-85.127711 24.674699l-9.664257 4.318072 6.168675 6.57992c9.86988 10.692369 33.105221 44.003213 45.853815 66.416064 39.479518 68.266667 61.892369 144.55261 66.210442 224.951004l1.233735 24.880321h-49.966265v-12.748594c0-18.711647-5.140562-53.050602-11.309237-76.285944-17.477912-66.827309-51.611245-123.579116-103.839357-172.517269-10.486747-10.075502-20.151004-18.094779-21.384739-18.094779s-9.458635 6.168675-18.09478 13.982329c-69.911647 61.481124-113.092369 150.31004-120.083534 246.746988l-1.439357 18.917269h-118.644177c-65.182329 0-119.055422-0.411245-119.466666-0.82249z" fill="#ffffff" p-id="5022"></path></svg>